<svg width="16" height="17" viewBox="0 0 16 17" fill="none" xmlns="http://www.w3.org/2000/svg">
<path d="M9.93387 5.06623L9.9339 5.06627L12.5686 7.7001L1.5 7.7001C1.28783 7.7001 1.08434 7.78439 0.934315 7.93442C0.784285 8.08444 0.7 8.28793 0.7 8.5001C0.7 8.71227 0.784286 8.91576 0.934315 9.06579C1.08434 9.21581 1.28783 9.3001 1.5 9.3001H12.5686L9.9339 11.9339L9.93387 11.934C9.78372 12.0841 9.69937 12.2878 9.69937 12.5001C9.69937 12.7124 9.78372 12.9161 9.93387 13.0662C10.084 13.2164 10.2877 13.3007 10.5 13.3007C10.7123 13.3007 10.916 13.2164 11.0661 13.0662L15.0659 9.0665C15.0659 9.06643 15.066 9.06635 15.0661 9.06628C15.0661 9.06626 15.0661 9.06625 15.0661 9.06623C15.1405 8.99197 15.1995 8.90379 15.2398 8.80672C15.2801 8.70952 15.3009 8.60533 15.3009 8.5001C15.3009 8.39487 15.2801 8.29068 15.2398 8.19349C15.1995 8.09641 15.1405 8.00823 15.0661 7.93397C15.0661 7.93396 15.0661 7.93394 15.0661 7.93393C15.066 7.93385 15.0659 7.93378 15.0659 7.9337L11.0661 3.93397C10.916 3.78382 10.7123 3.69947 10.5 3.69947C10.2877 3.69947 10.084 3.78382 9.93387 3.93397C9.78372 4.08412 9.69937 4.28776 9.69937 4.5001C9.69937 4.71244 9.78372 4.91609 9.93387 5.06623Z" fill="black" stroke="black" stroke-width="0.6"/>
</svg>
